<svg width="58" height="62" viewBox="0 0 58 62" fill="none" xmlns="http://www.w3.org/2000/svg">
<rect x="11.4375" y="28" width="5.625" height="8.9375" stroke="black"/>
<rect x="21.375" y="24.6875" width="5.625" height="12.25" stroke="black"/>
<rect x="31.3125" y="21.375" width="5.625" height="15.5625" stroke="black"/>
<rect x="41.25" y="18.0625" width="5.625" height="18.875" stroke="black"/>
<path d="M5.56588 13.2462H1V7.625H57.3125V13.2462H52.7466M5.56588 13.2462V39.947H23.8294M5.56588 13.2462H52.7466M52.7466 13.2462V39.947H34.4831M34.4831 39.947V44.1629L42.0929 51.1894L39.049 54L31.4392 46.9735H26.8733L19.2635 54L16.2196 51.1894L23.8294 44.1629V39.947M34.4831 39.947H23.8294" stroke="black"/>
<path d="M24.1875 7.625V1H30.8125V7.625" stroke="black" stroke-width="0.3"/>
<path d="M34.3276 14.9175C34.2821 14.6452 34.0243 14.4613 33.752 14.5069L29.3137 15.2496C29.0413 15.2952 28.8575 15.5529 28.9031 15.8253C28.9486 16.0976 29.2064 16.2815 29.4787 16.2359L33.4239 15.5757L34.0841 19.5209C34.1296 19.7932 34.3874 19.977 34.6597 19.9315C34.9321 19.8859 35.1159 19.6282 35.0704 19.3558L34.3276 14.9175ZM15.983 24.0263C18.2561 23.6459 21.8795 22.76 25.3931 21.333C28.8883 19.9134 32.3633 17.9236 34.2416 15.2904L33.4274 14.7097C31.7211 17.1019 28.4713 19.0034 25.0168 20.4065C21.5806 21.8021 18.0293 22.6699 15.818 23.04L15.983 24.0263Z" fill="black"/>
<circle cx="29.5" cy="25.5" r="20.5" fill="#8170E6" fill-opacity="0.34"/>
<circle cx="29.5" cy="41.5" r="20.5" fill="#8170E6" fill-opacity="0.6"/>
</svg>
